# xmcd CD database file
#
# Track frame offsets:
#	150
#	22745
#	52442
#	64728
#	81342
#	111754
#	146621
#
# Disc length: 2501 seconds
#
# Revision: 0
# Processed by: cddbd v1.5.2PL0 Copyright (c) Steve Scherf et al.
# Submitted via: CDex 1.51
#
DISCID=5f09c307
DTITLE=Association P.C. - Rock Around The Cock
DYEAR=1900
DGENRE=Jazz
TTITLE0=Phenis
TTITLE1=Polar Anna
TTITLE2=Mirrored Dimensions
TTITLE3=Shirocco
TTITLE4=Rock around the Cock
TTITLE5=Autumn in March
TTITLE6=Cap Carneval
EXTD=
EXTT0=
EXTT1=
EXTT2=
EXTT3=
EXTT4=
EXTT5=
EXTT6=
PLAYORDER=
